<?xml version="1.0" standalone="no"?>
<!DOCTYPE svg PUBLIC "-//W3C//DTD SVG 20010904//EN"
 "http://www.w3.org/TR/2001/REC-SVG-20010904/DTD/svg10.dtd">
<svg version="1.0" xmlns="http://www.w3.org/2000/svg"
 width="180.000000pt" height="180.000000pt" viewBox="0 0 180.000000 180.000000"
 preserveAspectRatio="xMidYMid meet">
<metadata>
Created by potrace 1.11, written by Peter Selinger 2001-2013
</metadata>
<g transform="translate(0.000000,180.000000) scale(0.100000,-0.100000)"
fill="#000000" stroke="none">
<path d="M102 1779 c-26 -13 -55 -39 -70 -62 l-27 -41 0 -775 c0 -874 -5 -814
77 -869 l42 -27 760 -3 c679 -2 766 -1 803 13 50 19 88 61 103 113 8 25 10
273 8 792 l-3 755 -23 37 c-13 20 -40 47 -60 60 l-37 23 -765 3 -765 2 -43
-21z"/>
</g>
</svg>
